<?xml version="1.0" standalone="no"?>
<!DOCTYPE svg PUBLIC "-//W3C//DTD SVG 20010904//EN"
 "http://www.w3.org/TR/2001/REC-SVG-20010904/DTD/svg10.dtd">
<svg version="1.0" xmlns="http://www.w3.org/2000/svg"
 width="50.000000pt" height="50.000000pt" viewBox="0 0 50.000000 50.000000"
 preserveAspectRatio="xMidYMid meet">

<g transform="translate(0.000000,50.000000) scale(0.100000,-0.100000)"
fill="#c7c0b8" stroke="none">
<path d="M190 445 c0 -19 5 -35 10 -35 6 0 10 -4 10 -10 0 -5 -9 -10 -21 -10
-30 0 -79 -53 -79 -85 0 -15 7 -40 17 -55 16 -27 15 -32 -12 -107 -15 -43 -30
-84 -33 -91 -3 -10 3 -13 24 -10 25 3 32 10 48 56 l19 52 48 0 c43 0 49 -3 49
-21 0 -12 15 -36 34 -55 47 -47 95 -47 142 0 21 21 34 44 34 60 0 29 -11 33
-30 11 -7 -8 -22 -15 -35 -15 -45 0 -73 63 -40 90 20 16 19 27 -3 32 -24 7
-69 135 -53 151 17 17 13 29 -8 22 -12 -3 -21 0 -25 10 -8 21 -53 19 -65 -2
-9 -15 -10 -12 -11 15 0 17 -4 32 -10 32 -5 0 -10 -16 -10 -35z m94 -144 c25
-69 26 -75 10 -92 -17 -19 -104 -28 -104 -11 0 7 37 123 55 171 7 19 9 16 39
-68z m-94 61 c0 -25 -34 -102 -44 -99 -21 7 -19 58 5 83 23 24 39 31 39 16z
m152 -171 c-6 -42 37 -85 79 -79 36 6 37 -4 3 -31 -37 -29 -70 -26 -105 8 -34
35 -37 68 -8 105 27 34 37 33 31 -3z"/>
<path d="M70 422 c0 -14 39 -46 47 -39 3 4 -2 16 -12 27 -19 21 -35 26 -35 12z"/>
<path d="M432 324 c-11 -12 -10 -17 2 -30 15 -14 17 -14 32 0 14 14 14 18 0
31 -18 18 -18 18 -34 -1z"/>
<path d="M20 300 c0 -5 16 -10 35 -10 19 0 35 5 35 10 0 6 -16 10 -35 10 -19
0 -35 -4 -35 -10z"/>
<path d="M85 200 c-10 -11 -15 -23 -12 -27 8 -7 47 25 47 39 0 14 -16 9 -35
-12z"/>
<path d="M202 64 c-11 -12 -10 -17 2 -30 15 -14 17 -14 32 0 14 14 14 18 0 31
-18 18 -18 18 -34 -1z"/>
</g>
</svg>
