<?xml version="1.0" standalone="no"?>
<!DOCTYPE svg PUBLIC "-//W3C//DTD SVG 20010904//EN"
 "http://www.w3.org/TR/2001/REC-SVG-20010904/DTD/svg10.dtd">
<svg version="1.0" xmlns="http://www.w3.org/2000/svg"
 width="512.000000pt" height="512.000000pt" viewBox="0 0 512.000000 512.000000"
 preserveAspectRatio="xMidYMid meet">

<g transform="translate(0.000000,512.000000) scale(0.100000,-0.100000)"
fill="#8b6539" stroke="none">
<path d="M2441 5064 c-186 -99 -334 -231 -391 -347 l-33 -67 -86 0 -86 0 -24
45 c-51 96 -289 275 -366 275 -35 0 -158 -67 -241 -130 -57 -45 -111 -106
-137 -156 -16 -31 -16 -31 -137 -41 -108 -10 -129 -15 -203 -50 -140 -67 -244
-192 -282 -338 -13 -51 -15 -186 -15 -982 l0 -923 -100 0 c-54 0 -122 -5 -150
-11 -143 -31 -227 -194 -170 -328 27 -61 92 -122 148 -139 29 -9 246 -12 799
-12 l760 0 12 -42 c20 -67 55 -121 116 -176 90 -82 178 -112 330 -112 l85 0 0
-199 0 -198 -52 -35 c-72 -49 -142 -117 -182 -180 -37 -60 -80 -164 -90 -221
l-7 -37 -149 0 c-82 0 -173 -5 -202 -11 -73 -16 -154 -58 -217 -115 -51 -46
-99 -131 -179 -316 l-20 -46 -100 -4 c-79 -2 -104 -7 -120 -21 -44 -40 -28
-116 28 -136 47 -16 3113 -16 3160 0 56 20 72 96 28 136 -16 14 -41 19 -120
21 l-100 4 -20 46 c-80 185 -128 270 -179 316 -63 57 -144 99 -217 115 -29 6
-120 11 -202 11 l-149 0 -7 38 c-10 56 -53 160 -90 220 -40 63 -110 131 -181
180 l-53 35 0 198 0 199 85 0 c152 0 240 30 330 112 61 55 96 109 116 176 l12
42 760 0 c553 0 770 3 799 12 56 17 121 78 148 139 57 134 -27 297 -170 328
-28 6 -96 11 -150 11 l-100 0 0 923 c0 796 -2 931 -15 982 -38 146 -142 271
-282 338 -74 35 -95 40 -203 50 -121 10 -121 10 -137 41 -26 50 -80 111 -137
156 -83 63 -206 130 -241 130 -77 0 -315 -179 -366 -275 l-24 -45 -86 0 -86 0
-33 67 c-23 47 -57 91 -109 143 -118 117 -332 250 -403 250 -20 0 -67 -19
-117 -46z m198 -166 c108 -64 199 -136 243 -192 l41 -51 -182 -3 c-99 -1 -263
-1 -362 0 l-182 3 41 51 c22 29 70 74 106 100 82 61 197 133 213 133 7 1 44
-18 82 -41z m-1134 -127 c28 -16 73 -50 100 -75 l50 -45 -205 0 -205 0 35 31
c34 29 160 117 170 117 3 1 28 -12 55 -28z m2233 -15 c37 -24 83 -58 102 -74
l35 -31 -205 0 -205 0 50 45 c39 37 138 103 153 104 2 0 34 -20 70 -44z m564
-303 c66 -30 113 -70 153 -128 51 -75 66 -147 63 -311 l-3 -138 -50 -11 c-71
-16 -155 -64 -265 -150 -116 -92 -172 -115 -280 -115 -106 0 -166 24 -271 108
-181 144 -237 167 -414 167 -172 -1 -216 -20 -410 -172 -101 -80 -160 -103
-265 -103 -105 0 -164 23 -265 103 -194 152 -238 171 -410 172 -175 0 -235
-24 -408 -162 -42 -35 -100 -74 -127 -88 -27 -14 -54 -34 -60 -44 -6 -12 -10
-116 -10 -268 0 -237 -1 -250 -20 -271 -11 -12 -31 -24 -44 -28 -28 -7 -81 18
-90 41 -3 9 -6 124 -6 255 0 165 -4 247 -12 265 -7 15 -32 37 -58 50 -26 13
-86 55 -136 94 -104 83 -189 130 -259 146 l-50 11 -3 138 c-2 100 2 155 13
200 24 94 92 182 175 226 74 39 44 39 1785 37 l1680 -2 47 -22z m-2266 -768
c30 -15 85 -52 122 -82 159 -131 243 -166 402 -166 160 0 227 27 393 160 42
34 103 74 135 90 50 25 68 28 152 28 84 0 102 -3 152 -28 32 -16 93 -56 135
-90 166 -133 233 -160 393 -160 161 0 229 28 400 163 88 70 126 93 173 104
l27 6 0 -680 0 -680 -1960 0 -1960 0 0 680 0 680 28 -6 c46 -11 84 -34 182
-112 52 -41 105 -79 118 -85 22 -10 22 -13 22 -202 0 -106 5 -217 10 -246 14
-75 56 -137 114 -174 44 -27 58 -30 126 -30 68 0 82 3 126 30 30 19 60 49 79
79 l30 49 3 238 3 238 37 22 c20 13 69 48 107 79 137 110 194 132 318 126 58
-3 92 -11 133 -31z m2884 -1515 c48 -26 43 -110 -10 -137 -37 -19 -4663 -19
-4700 0 -52 26 -59 100 -13 135 21 15 4693 18 4723 2z m-1700 -315 c0 -38 -88
-126 -146 -146 -57 -20 -971 -20 -1028 0 -58 20 -146 108 -146 146 0 3 297 5
660 5 363 0 660 -2 660 -5z m-538 -564 c3 -273 -1 -259 100 -313 104 -55 203
-182 224 -286 l7 -32 -226 0 c-132 0 -237 -4 -253 -10 -57 -22 -71 -79 -30
-127 l24 -28 499 -5 c560 -6 536 -2 616 -83 29 -29 55 -72 83 -137 l41 -95
-603 -3 c-332 -1 -876 -1 -1208 0 l-603 3 41 95 c47 108 96 166 171 199 45 20
64 21 349 21 182 0 316 4 339 11 50 13 72 57 53 104 -17 41 -49 55 -130 55
l-68 0 6 32 c21 104 120 231 224 286 101 54 97 40 100 313 l3 239 119 0 119 0
3 -239z"/>
<path d="M3984 3090 c-28 -11 -54 -48 -54 -77 0 -35 40 -74 78 -75 69 -2 108
80 62 130 -12 12 -25 22 -30 22 -4 0 -14 2 -22 4 -7 3 -23 1 -34 -4z"/>
<path d="M3642 2754 c-66 -46 -36 -143 44 -144 69 0 102 96 48 139 -32 25 -62
27 -92 5z"/>
</g>
</svg>
